<?xml version="1.0" encoding="utf-8"?>
<!-- Generator: Adobe Illustrator 25.0.1, SVG Export Plug-In . SVG Version: 6.00 Build 0)  -->
<svg version="1.1" id="Layer_1" xmlns="http://www.w3.org/2000/svg" xmlns:xlink="http://www.w3.org/1999/xlink" x="0px" y="0px"
	 viewBox="0 0 1920 1080" style="enable-background:new 0 0 1920 1080;" xml:space="preserve">
<style type="text/css">
	.st0{stroke:#000000;stroke-miterlimit:10;}
</style>
<polygon class="st0" points="171.63,900.15 102.21,900.15 67.5,960.27 102.21,1020.39 171.63,1020.39 206.34,960.27 "/>
<polygon class="st0" points="171.63,780.13 102.21,780.13 67.5,840.25 102.21,900.37 171.63,900.37 206.34,840.25 "/>
<polygon class="st0" points="275.63,960.17 206.21,960.17 171.5,1020.29 206.21,1080.41 275.63,1080.41 310.34,1020.29 "/>
<polygon class="st0" points="275.63,720.13 206.21,720.13 171.5,780.25 206.21,840.37 275.63,840.37 310.34,780.25 "/>
<polygon class="st0" points="275.63,480.09 206.21,480.09 171.5,540.21 206.21,600.32 275.63,600.32 310.34,540.21 "/>
<polygon class="st0" points="379.63,900.15 310.21,900.15 275.5,960.27 310.21,1020.39 379.63,1020.39 414.34,960.27 "/>
<polygon class="st0" points="379.63,780.13 310.21,780.13 275.5,840.25 310.21,900.37 379.63,900.37 414.34,840.25 "/>
<polygon class="st0" points="379.63,660.11 310.21,660.11 275.5,720.23 310.21,780.35 379.63,780.35 414.34,720.23 "/>
<polygon class="st0" points="379.63,420.07 310.21,420.07 275.5,480.18 310.21,540.3 379.63,540.3 414.34,480.18 "/>
<polygon class="st0" points="379.63,300.04 310.21,300.04 275.5,360.16 310.21,420.28 379.63,420.28 414.34,360.16 "/>
<polygon class="st0" points="483.63,960.17 414.21,960.17 379.5,1020.29 414.21,1080.41 483.63,1080.41 518.34,1020.29 "/>
<polygon class="st0" points="483.63,840.15 414.21,840.15 379.5,900.27 414.21,960.39 483.63,960.39 518.34,900.27 "/>
<polygon class="st0" points="483.63,720.13 414.21,720.13 379.5,780.25 414.21,840.37 483.63,840.37 518.34,780.25 "/>
<polygon class="st0" points="483.63,120.02 414.21,120.02 379.5,180.14 414.21,240.26 483.63,240.26 518.34,180.14 "/>
<polygon class="st0" points="587.63,900.15 518.21,900.15 483.5,960.27 518.21,1020.39 587.63,1020.39 622.34,960.27 "/>
<polygon class="st0" points="587.63,660.11 518.21,660.11 483.5,720.23 518.21,780.35 587.63,780.35 622.34,720.23 "/>
<polygon class="st0" points="587.63,420.07 518.21,420.07 483.5,480.18 518.21,540.3 587.63,540.3 622.34,480.18 "/>
<polygon class="st0" points="587.63,60 518.21,60 483.5,120.12 518.21,180.24 587.63,180.24 622.34,120.12 "/>
<polygon class="st0" points="691.63,840.15 622.21,840.15 587.5,900.27 622.21,960.39 691.63,960.39 726.34,900.27 "/>
<polygon class="st0" points="691.63,600.11 622.21,600.11 587.5,660.23 622.21,720.35 691.63,720.35 726.34,660.23 "/>
<polygon class="st0" points="691.63,480.09 622.21,480.09 587.5,540.21 622.21,600.32 691.63,600.32 726.34,540.21 "/>
<polygon class="st0" points="795.63,900.15 726.21,900.15 691.5,960.27 726.21,1020.39 795.63,1020.39 830.34,960.27 "/>
<polygon class="st0" points="795.63,780.13 726.21,780.13 691.5,840.25 726.21,900.37 795.63,900.37 830.34,840.25 "/>
<polygon class="st0" points="795.63,660.11 726.21,660.11 691.5,720.23 726.21,780.35 795.63,780.35 830.34,720.23 "/>
<polygon class="st0" points="795.63,420.07 726.21,420.07 691.5,480.18 726.21,540.3 795.63,540.3 830.34,480.18 "/>
<polygon class="st0" points="795.63,180.02 726.21,180.02 691.5,240.14 726.21,300.26 795.63,300.26 830.34,240.14 "/>
<polygon class="st0" points="899.63,960.17 830.21,960.17 795.5,1020.29 830.21,1080.41 899.63,1080.41 934.34,1020.29 "/>
<polygon class="st0" points="899.63,720.13 830.21,720.13 795.5,780.25 830.21,840.37 899.63,840.37 934.34,780.25 "/>
<polygon class="st0" points="899.63,600.11 830.21,600.11 795.5,660.23 830.21,720.35 899.63,720.35 934.34,660.23 "/>
<polygon class="st0" points="899.63,360.07 830.21,360.07 795.5,420.18 830.21,480.3 899.63,480.3 934.34,420.18 "/>
<polygon class="st0" points="1003.63,780.13 934.21,780.13 899.5,840.25 934.21,900.37 1003.63,900.37 1038.34,840.25 "/>
<polygon class="st0" points="1107.63,960.17 1038.21,960.17 1003.5,1020.29 1038.21,1080.41 1107.63,1080.41 1142.34,1020.29 "/>
<polygon class="st0" points="1107.63,840.15 1038.21,840.15 1003.5,900.27 1038.21,960.39 1107.63,960.39 1142.34,900.27 "/>
<polygon class="st0" points="1107.63,720.13 1038.21,720.13 1003.5,780.25 1038.21,840.37 1107.63,840.37 1142.34,780.25 "/>
<polygon class="st0" points="1107.63,600.11 1038.21,600.11 1003.5,660.23 1038.21,720.35 1107.63,720.35 1142.34,660.23 "/>
<polygon class="st0" points="1107.63,360.07 1038.21,360.07 1003.5,420.18 1038.21,480.3 1107.63,480.3 1142.34,420.18 "/>
<polygon class="st0" points="1107.63,120.02 1038.21,120.02 1003.5,180.14 1038.21,240.26 1107.63,240.26 1142.34,180.14 "/>
<polygon class="st0" points="1211.63,900.15 1142.21,900.15 1107.5,960.27 1142.21,1020.39 1211.63,1020.39 1246.34,960.27 "/>
<polygon class="st0" points="1211.63,780.13 1142.21,780.13 1107.5,840.25 1142.21,900.37 1211.63,900.37 1246.34,840.25 "/>
<polygon class="st0" points="1211.63,540.09 1142.21,540.09 1107.5,600.21 1142.21,660.32 1211.63,660.32 1246.34,600.21 "/>
<polygon class="st0" points="1211.63,300.04 1142.21,300.04 1107.5,360.16 1142.21,420.28 1211.63,420.28 1246.34,360.16 "/>
<polygon class="st0" points="1315.63,960.17 1246.21,960.17 1211.5,1020.29 1246.21,1080.41 1315.63,1080.41 1350.34,1020.29 "/>
<polygon class="st0" points="1315.63,720.13 1246.21,720.13 1211.5,780.25 1246.21,840.37 1315.63,840.37 1350.34,780.25 "/>
<polygon class="st0" points="1315.63,600.11 1246.21,600.11 1211.5,660.23 1246.21,720.35 1315.63,720.35 1350.34,660.23 "/>
<polygon class="st0" points="1315.63,480.09 1246.21,480.09 1211.5,540.21 1246.21,600.32 1315.63,600.32 1350.34,540.21 "/>
<polygon class="st0" points="1315.63,360.07 1246.21,360.07 1211.5,420.18 1246.21,480.3 1315.63,480.3 1350.34,420.18 "/>
<polygon class="st0" points="1419.63,660.11 1350.21,660.11 1315.5,720.23 1350.21,780.35 1419.63,780.35 1454.34,720.23 "/>
<polygon class="st0" points="1523.63,960.17 1454.21,960.17 1419.5,1020.29 1454.21,1080.41 1523.63,1080.41 1558.34,1020.29 "/>
<polygon class="st0" points="1523.63,840.15 1454.21,840.15 1419.5,900.27 1454.21,960.39 1523.63,960.39 1558.34,900.27 "/>
<polygon class="st0" points="1523.63,720.13 1454.21,720.13 1419.5,780.25 1454.21,840.37 1523.63,840.37 1558.34,780.25 "/>
<polygon class="st0" points="1523.63,480.09 1454.21,480.09 1419.5,540.21 1454.21,600.32 1523.63,600.32 1558.34,540.21 "/>
<polygon class="st0" points="1523.63,360.07 1454.21,360.07 1419.5,420.18 1454.21,480.3 1523.63,480.3 1558.34,420.18 "/>
<polygon class="st0" points="1523.63,120.02 1454.21,120.02 1419.5,180.14 1454.21,240.26 1523.63,240.26 1558.34,180.14 "/>
<polygon class="st0" points="1627.63,780.13 1558.21,780.13 1523.5,840.25 1558.21,900.37 1627.63,900.37 1662.34,840.25 "/>
<polygon class="st0" points="1627.63,420.07 1558.21,420.07 1523.5,480.18 1558.21,540.3 1627.63,540.3 1662.34,480.18 "/>
<polygon class="st0" points="1627.63,180.02 1558.21,180.02 1523.5,240.14 1558.21,300.26 1627.63,300.26 1662.34,240.14 "/>
<polygon class="st0" points="1731.63,840.15 1662.21,840.15 1627.5,900.27 1662.21,960.39 1731.63,960.39 1766.34,900.27 "/>
<polygon class="st0" points="1731.63,720.13 1662.21,720.13 1627.5,780.25 1662.21,840.37 1731.63,840.37 1766.34,780.25 "/>
<polygon class="st0" points="1731.63,600.11 1662.21,600.11 1627.5,660.23 1662.21,720.35 1731.63,720.35 1766.34,660.23 "/>
<polygon class="st0" points="1731.63,480.09 1662.21,480.09 1627.5,540.21 1662.21,600.32 1731.63,600.32 1766.34,540.21 "/>
<polygon class="st0" points="1835.63,900.15 1766.21,900.15 1731.5,960.27 1766.21,1020.39 1835.63,1020.39 1870.34,960.27 "/>
<polygon class="st0" points="1835.63,540.09 1766.21,540.09 1731.5,600.21 1766.21,660.32 1835.63,660.32 1870.34,600.21 "/>
<polygon class="st0" points="1835.63,300.04 1766.21,300.04 1731.5,360.16 1766.21,420.28 1835.63,420.28 1870.34,360.16 "/>
<polygon class="st0" points="0.5,840.37 0.5,960.39 67.63,960.39 102.34,900.27 67.69,840.26 67.63,840.37 "/>
<polygon class="st0" points="67.63,720.13 0.5,720.13 0.5,840.15 67.63,840.15 67.69,840.26 102.34,780.25 "/>
<polygon class="st0" points="67.63,600.32 102.34,540.21 67.63,480.09 0.5,480.09 0.5,600.32 "/>
<polygon class="st0" points="-1.85,840.26 -1.79,840.37 0.5,840.37 0.5,840.15 -1.79,840.15 "/>
<polygon class="st0" points="1870.21,960.17 1835.5,1020.29 1870.21,1080.41 1920.5,1080.41 1920.5,960.17 "/>
<polygon class="st0" points="1870.21,720.35 1870.15,720.24 1835.5,780.25 1870.21,840.37 1920.5,840.37 1920.5,720.35 "/>
<polygon class="st0" points="1920.5,720.13 1920.5,600.11 1870.21,600.11 1835.5,660.23 1870.15,720.24 1870.21,720.13 "/>
<polygon class="st0" points="1870.21,360.28 1870.15,360.17 1835.5,420.18 1870.21,480.3 1920.5,480.3 1920.5,360.28 "/>
<polygon class="st0" points="1920.5,360.07 1920.5,240.04 1870.21,240.04 1835.5,300.16 1870.15,360.17 1870.21,360.07 "/>
<polygon class="st0" points="414.34,1080.29 379.63,1020.17 310.21,1020.17 275.5,1080.29 275.62,1080.5 414.22,1080.5 "/>
<polygon class="st0" points="830.34,1080.29 795.63,1020.17 726.21,1020.17 691.5,1080.29 691.62,1080.5 830.22,1080.5 "/>
<polygon class="st0" points="1038.34,1080.29 1003.63,1020.17 934.21,1020.17 899.5,1080.29 899.62,1080.5 1038.22,1080.5 "/>
<polygon class="st0" points="1454.34,1080.29 1419.63,1020.17 1350.21,1020.17 1315.5,1080.29 1315.62,1080.5 1454.22,1080.5 "/>
<polygon class="st0" points="1662.34,1080.29 1627.63,1020.17 1558.21,1020.17 1523.5,1080.29 1523.62,1080.5 1662.22,1080.5 "/>
<polygon class="st0" points="1870.34,1080.29 1835.63,1020.17 1766.21,1020.17 1731.5,1080.29 1731.62,1080.5 1870.22,1080.5 "/>
</svg>
