<?xml version="1.0" encoding="utf-8"?>
<!-- Generator: Adobe Illustrator 25.0.1, SVG Export Plug-In . SVG Version: 6.00 Build 0)  -->
<svg version="1.1" id="Layer_1" xmlns="http://www.w3.org/2000/svg" xmlns:xlink="http://www.w3.org/1999/xlink" x="0px" y="0px"
	 viewBox="0 0 1922 1080.4" style="enable-background:new 0 0 1922 1080.4;" xml:space="preserve">
<style type="text/css">
	.st0{fill:#4A4A4A;stroke:#FFFFFF;stroke-miterlimit:10;}
</style>
<polygon class="st0" points="1421.6,300.3 1352.3,300.3 1317.7,360.2 1352.3,420.1 1421.6,420.1 1456.2,360.2 "/>
<polygon class="st0" points="832.3,240 901.6,240 936.2,180.1 901.6,120.2 832.3,120.2 797.7,180.1 "/>
<polygon class="st0" points="1664.3,240 1733.6,240 1768.2,180.1 1733.6,120.2 1664.3,120.2 1629.7,180.1 "/>
<polygon class="st0" points="1733.6,840.4 1664.3,840.4 1629.7,900.3 1664.3,960.2 1733.6,960.2 1768.2,900.3 "/>
<polygon class="st0" points="2,960.4 2,1080 69.7,1080 104.2,1020.2 104.3,1020.2 69.7,960.3 69.7,960.4 "/>
<polygon class="st0" points="2,840.4 2,960.2 69.7,960.2 69.7,960.3 104.4,900.3 69.7,840.3 69.7,840.4 "/>
<polygon class="st0" points="2,960.2 2,960.4 69.7,960.4 69.7,960.3 69.7,960.2 "/>
<polygon class="st0" points="69.7,840.2 69.7,840.3 104.4,780.3 69.7,720.1 2,720.1 2,840.2 "/>
<polygon class="st0" points="2,840.2 2,840.4 69.7,840.4 69.7,840.3 69.7,840.2 "/>
<polygon class="st0" points="104.4,540.2 69.7,480.1 2,480.1 2,600.3 69.7,600.3 "/>
<polygon class="st0" points="69.5,360.2 104.2,300 104.3,300 69.7,240 2,240 2,360.3 69.6,360.3 "/>
<polygon class="st0" points="104.3,1020.2 104.4,1020.3 69.9,1080 208.2,1080 173.7,1020.2 "/>
<polygon class="st0" points="69.7,1080 69.9,1080 104.4,1020.3 104.3,1020.2 104.2,1020.2 "/>
<polygon class="st0" points="69.7,360.3 69.6,360.3 104.2,420.3 173.7,420.3 208.4,360.2 173.7,300 104.3,300 104.4,300.2 "/>
<polygon class="st0" points="69.5,360.2 69.6,360.3 69.7,360.3 104.4,300.2 104.3,300 104.2,300 "/>
<polygon class="st0" points="104.2,60.2 173.6,60.2 173.5,60.1 208.2,0 69.6,0 69.5,0.1 "/>
<polygon class="st0" points="173.7,60.2 173.6,60.2 208.2,120.2 277.7,120.2 312.3,60.2 312.2,60.2 277.5,0.1 277.6,0 208.3,0 
	208.4,0.1 "/>
<polygon class="st0" points="173.5,60.1 173.6,60.2 173.7,60.2 208.4,0.1 208.3,0 208.2,0 "/>
<polygon class="st0" points="416.2,720.1 416.3,720.1 381.7,660.1 312.2,660.1 277.5,720.2 312.2,780.3 381.6,780.3 381.5,780.3 "/>
<polygon class="st0" points="381.7,540.3 416.4,480.2 381.7,420.1 312.2,420.1 277.5,480.2 312.2,540.3 "/>
<polygon class="st0" points="381.5,180.1 381.6,180 312.2,180 277.5,240.1 312.2,300.3 381.7,300.3 416.3,240.3 416.2,240.3 "/>
<polygon class="st0" points="416.2,0 277.7,0 312.4,60.1 312.3,60.2 381.6,60.2 381.5,60.1 "/>
<polygon class="st0" points="312.2,60.2 312.3,60.2 312.4,60.1 277.7,0 277.6,0 277.5,0.1 "/>
<polygon class="st0" points="520.2,1020.2 520.3,1020.2 485.7,960.2 416.2,960.2 381.5,1020.3 416,1080 485.7,1080 "/>
<polygon class="st0" points="416.3,720.1 416.4,720.2 381.7,780.3 381.6,780.3 416.2,840.4 485.7,840.4 520.4,780.3 485.7,720.1 "/>
<polygon class="st0" points="416.4,720.2 416.3,720.1 416.2,720.1 381.5,780.3 381.6,780.3 381.7,780.3 "/>
<polygon class="st0" points="485.6,120.2 416.2,120.2 416.2,120.1 381.6,180 381.7,180 416.4,240.1 416.3,240.3 485.7,240.3 
	520.3,180.2 520.2,180.2 "/>
<polygon class="st0" points="381.7,180 381.6,180 381.5,180.1 416.2,240.3 416.3,240.3 416.4,240.1 "/>
<polygon class="st0" points="381.7,60.2 381.6,60.2 416.2,120.1 416.2,120 485.6,120 520.2,60.1 485.5,0.1 485.6,0 416.3,0 
	416.4,0.1 "/>
<polygon class="st0" points="381.5,60.1 381.6,60.2 381.7,60.2 416.4,0.1 416.3,0 416.2,0 "/>
<polygon class="st0" points="485.6,120.2 485.5,120.1 485.6,120 416.2,120 416.2,120.1 416.2,120.2 "/>
<polygon class="st0" points="485.9,1080 624,1080 589.5,1020.3 589.6,1020.2 520.3,1020.2 520.4,1020.3 "/>
<polygon class="st0" points="485.7,1080 485.9,1080 520.4,1020.3 520.3,1020.2 520.2,1020.2 "/>
<polygon class="st0" points="624.2,120.1 589.6,60.2 520.3,60.2 485.7,120.1 520.4,180.1 520.3,180.2 589.6,180.2 589.5,180.1 "/>
<polygon class="st0" points="485.7,120.1 485.7,120.2 485.6,120.2 520.2,180.2 520.3,180.2 520.4,180.1 "/>
<polygon class="st0" points="485.7,120.1 520.3,60.2 520.2,60.2 520.2,60.1 485.6,120 485.7,120 "/>
<polygon class="st0" points="485.6,120.2 485.7,120.2 485.7,120.1 485.7,120 485.6,120 485.5,120.1 "/>
<polygon class="st0" points="624.2,0 485.7,0 520.3,60 589.6,60 "/>
<polygon class="st0" points="520.2,60.1 520.2,60 520.3,60 485.7,0 485.6,0 485.5,0.1 "/>
<polygon class="st0" points="520.3,60.2 589.6,60.2 589.5,60.1 589.6,60 520.3,60 520.4,60.1 "/>
<polygon class="st0" points="520.3,60.2 520.4,60.1 520.3,60 520.2,60 520.2,60.1 520.2,60.2 "/>
<polygon class="st0" points="624.2,1080 693.7,1080 728.2,1020.3 693.5,960.3 693.6,960.2 624.2,960.2 589.6,1020.2 589.7,1020.2 
	"/>
<polygon class="st0" points="624,1080 624.2,1080 589.7,1020.2 589.6,1020.2 589.5,1020.3 "/>
<polygon class="st0" points="728.2,300.1 693.6,240.3 624.2,240.3 624.2,240.1 589.5,300.2 624.2,360.3 693.6,360.3 693.5,360.2 "/>
<polygon class="st0" points="693.6,240 728.2,180.1 693.6,120.2 624.3,120.2 589.7,180.2 589.6,180.2 624.2,240.1 624.2,240 "/>
<polygon class="st0" points="624.3,120.2 624.2,120.2 624.2,120.1 589.5,180.1 589.6,180.2 589.7,180.2 "/>
<polygon class="st0" points="693.6,240.3 693.5,240.1 693.6,240 624.2,240 624.2,240.1 624.2,240.3 "/>
<polygon class="st0" points="589.7,60.1 624.3,120 693.6,120 728.2,60.1 693.5,0.1 693.6,0 624.3,0 624.4,0.1 "/>
<polygon class="st0" points="589.6,60.2 624.2,120.1 624.2,120 624.3,120 589.7,60.1 589.7,60.2 "/>
<polygon class="st0" points="589.6,60 589.7,60 589.7,60.1 624.4,0.1 624.3,0 624.2,0 "/>
<polygon class="st0" points="589.6,60.2 589.7,60.2 589.7,60.1 589.7,60 589.6,60 589.5,60.1 "/>
<polygon class="st0" points="624.3,120.2 693.6,120.2 693.5,120.1 693.6,120 624.3,120 624.4,120.1 "/>
<polygon class="st0" points="624.2,120.1 624.2,120.2 624.3,120.2 624.4,120.1 624.3,120 624.2,120 "/>
<polygon class="st0" points="728.3,1020.4 693.9,1080 832,1080 797.6,1020.4 "/>
<polygon class="st0" points="728.2,1020.4 728.2,1020.3 693.7,1080 693.9,1080 728.3,1020.4 "/>
<polygon class="st0" points="728.3,1020.2 797.6,1020.2 832.2,960.2 832.3,960.2 797.7,900.2 728.2,900.2 693.6,960.2 693.7,960.2 
	"/>
<polygon class="st0" points="728.2,1020.3 728.2,1020.2 728.3,1020.2 693.7,960.2 693.6,960.2 693.5,960.3 "/>
<polygon class="st0" points="728.3,1020.4 797.6,1020.4 797.5,1020.3 797.6,1020.2 728.3,1020.2 728.4,1020.3 "/>
<polygon class="st0" points="728.3,1020.4 728.4,1020.3 728.3,1020.2 728.2,1020.2 728.2,1020.3 728.2,1020.4 "/>
<polygon class="st0" points="797.6,300.3 728.3,300.3 693.7,360.3 693.6,360.3 728.2,420.3 797.7,420.3 832.3,360.3 832.2,360.3 "/>
<polygon class="st0" points="728.3,300.3 728.2,300.3 728.2,300.1 693.5,360.2 693.6,360.3 693.7,360.3 "/>
<polygon class="st0" points="797.7,180.2 728.3,180.2 693.7,240.1 728.3,300 797.6,300 832.2,240 832.3,240 797.7,180.1 "/>
<polygon class="st0" points="728.3,300 693.7,240.1 693.7,240.3 693.6,240.3 728.2,300.1 728.2,300 "/>
<polygon class="st0" points="693.7,240.1 728.3,180.2 728.2,180.2 728.2,180.1 693.6,240 693.7,240 "/>
<polygon class="st0" points="693.7,240.1 693.7,240 693.6,240 693.5,240.1 693.6,240.3 693.7,240.3 "/>
<polygon class="st0" points="797.6,300 728.3,300 728.4,300.2 728.3,300.3 797.6,300.3 797.5,300.2 "/>
<polygon class="st0" points="728.3,300 728.2,300 728.2,300.1 728.2,300.3 728.3,300.3 728.4,300.2 "/>
<polygon class="st0" points="797.6,60.2 728.3,60.2 693.7,120.1 728.3,180 797.7,180 797.7,180.1 832.3,120.2 832.2,120.2 "/>
<polygon class="st0" points="728.3,180 693.7,120.1 693.7,120.2 693.6,120.2 728.2,180.1 728.2,180 "/>
<polygon class="st0" points="693.7,120.1 728.3,60.2 728.2,60.2 728.2,60.1 693.6,120 693.7,120 "/>
<polygon class="st0" points="693.6,120.2 693.7,120.2 693.7,120.1 693.7,120 693.6,120 693.5,120.1 "/>
<polygon class="st0" points="728.3,180.2 797.7,180.2 797.7,180.1 797.7,180 728.3,180 728.4,180.1 "/>
<polygon class="st0" points="728.3,180.2 728.4,180.1 728.3,180 728.2,180 728.2,180.1 728.2,180.2 "/>
<polygon class="st0" points="832.2,0 693.7,0 728.3,60 797.6,60 "/>
<polygon class="st0" points="728.2,60.1 728.2,60 728.3,60 693.7,0 693.6,0 693.5,0.1 "/>
<polygon class="st0" points="728.3,60.2 797.6,60.2 797.5,60.1 797.6,60 728.3,60 728.4,60.1 "/>
<polygon class="st0" points="728.3,60.2 728.4,60.1 728.3,60 728.2,60 728.2,60.1 728.2,60.2 "/>
<polygon class="st0" points="901.7,960.2 832.3,960.2 832.4,960.3 797.7,1020.3 832.2,1080 901.9,1080 936.4,1020.3 "/>
<polygon class="st0" points="797.6,1020.4 832,1080 832.2,1080 797.7,1020.3 797.7,1020.4 "/>
<polygon class="st0" points="797.6,1020.2 797.7,1020.2 797.7,1020.3 832.4,960.3 832.3,960.2 832.2,960.2 "/>
<polygon class="st0" points="797.6,1020.2 797.5,1020.3 797.6,1020.4 797.7,1020.4 797.7,1020.3 797.7,1020.2 "/>
<polygon class="st0" points="832.2,600.1 797.5,660.2 832.2,720.3 901.7,720.3 936.4,660.2 901.7,600.1 "/>
<polygon class="st0" points="901.5,240.1 901.6,240 832.3,240 832.4,240.1 797.7,300.1 832.4,360.2 832.3,360.3 901.7,360.3 
	936.3,300.3 936.2,300.3 "/>
<polygon class="st0" points="797.7,300.1 797.7,300.3 797.6,300.3 832.2,360.3 832.3,360.3 832.4,360.2 "/>
<polygon class="st0" points="797.6,300 797.7,300 797.7,300.1 832.4,240.1 832.3,240 832.2,240 "/>
<polygon class="st0" points="797.6,300 797.5,300.2 797.6,300.3 797.7,300.3 797.7,300.1 797.7,300 "/>
<polygon class="st0" points="797.7,60.1 832.4,120.1 832.3,120.2 901.6,120.2 901.5,120.1 936.2,60.1 901.5,0.1 901.6,0 832.3,0 
	832.4,0.1 "/>
<polygon class="st0" points="797.6,60.2 832.2,120.2 832.3,120.2 832.4,120.1 797.7,60.1 797.7,60.2 "/>
<polygon class="st0" points="797.6,60 797.7,60 797.7,60.1 832.4,0.1 832.3,0 832.2,0 "/>
<polygon class="st0" points="797.6,60.2 797.7,60.2 797.7,60.1 797.7,60 797.6,60 797.5,60.1 "/>
<polygon class="st0" points="1005.6,180.2 936.2,180.2 936.2,180.1 901.6,240 901.7,240 936.4,300.2 936.3,300.3 1005.7,300.3 
	1040.3,240.3 1040.2,240.3 "/>
<polygon class="st0" points="901.7,240 901.6,240 901.5,240.1 936.2,300.3 936.3,300.3 936.4,300.2 "/>
<polygon class="st0" points="936.2,180 1005.6,180 1040.2,120.1 1005.6,60.2 936.3,60.2 901.7,120.2 901.6,120.2 936.2,180.1 "/>
<polygon class="st0" points="936.3,60.2 936.2,60.2 936.2,60.1 901.5,120.1 901.6,120.2 901.7,120.2 "/>
<polygon class="st0" points="1005.6,180 936.2,180 936.2,180.1 936.2,180.2 1005.6,180.2 1005.5,180.1 "/>
<polygon class="st0" points="1040.2,0 901.7,0 936.3,60 1005.6,60 "/>
<polygon class="st0" points="936.2,60.1 936.2,60 936.3,60 901.7,0 901.6,0 901.5,0.1 "/>
<polygon class="st0" points="936.3,60.2 1005.6,60.2 1005.5,60.1 1005.6,60 936.3,60 936.4,60.1 "/>
<polygon class="st0" points="936.3,60.2 936.4,60.1 936.3,60 936.2,60 936.2,60.1 936.2,60.2 "/>
<polygon class="st0" points="1144.2,1020.3 1109.5,960.3 1109.6,960.2 1040.2,960.2 1005.5,1020.3 1040,1080 1109.7,1080 "/>
<polygon class="st0" points="1144.2,420.1 1144.3,420.1 1109.7,360.1 1040.2,360.1 1005.5,420.2 1040.2,480.3 1109.6,480.3 
	1109.5,480.2 "/>
<polygon class="st0" points="1144.2,180.1 1109.6,120.2 1040.3,120.2 1005.7,180.1 1040.4,240.1 1040.3,240.3 1109.6,240.3 
	1109.5,240.1 "/>
<polygon class="st0" points="1005.7,180.1 1005.7,180.2 1005.6,180.2 1040.2,240.3 1040.3,240.3 1040.4,240.1 "/>
<polygon class="st0" points="1040.2,120.1 1005.6,180 1005.7,180 1005.7,180.1 1040.3,120.2 1040.2,120.2 "/>
<polygon class="st0" points="1005.6,180 1005.5,180.1 1005.6,180.2 1005.7,180.2 1005.7,180.1 1005.7,180 "/>
<polygon class="st0" points="1005.7,60.1 1040.3,120 1109.6,120 1144.2,60.1 1109.5,0.1 1109.6,0 1040.3,0 1040.4,0.1 "/>
<polygon class="st0" points="1005.6,60.2 1040.2,120.1 1040.2,120 1040.3,120 1005.7,60.1 1005.7,60.2 "/>
<polygon class="st0" points="1005.6,60 1005.7,60 1005.7,60.1 1040.4,0.1 1040.3,0 1040.2,0 "/>
<polygon class="st0" points="1005.6,60.2 1005.7,60.2 1005.7,60.1 1005.7,60 1005.6,60 1005.5,60.1 "/>
<polygon class="st0" points="1040.3,120.2 1109.6,120.2 1109.5,120.1 1109.6,120 1040.3,120 1040.4,120.1 "/>
<polygon class="st0" points="1040.2,120.1 1040.2,120.2 1040.3,120.2 1040.4,120.1 1040.3,120 1040.2,120 "/>
<polygon class="st0" points="1144.3,1020.4 1109.9,1080 1248,1080 1213.6,1020.4 "/>
<polygon class="st0" points="1144.2,1020.4 1144.2,1020.3 1109.7,1080 1109.9,1080 1144.3,1020.4 "/>
<polygon class="st0" points="1144.3,1020.2 1213.6,1020.2 1248.2,960.2 1248.3,960.2 1213.7,900.2 1144.2,900.2 1109.6,960.2 
	1109.7,960.2 "/>
<polygon class="st0" points="1144.3,1020.2 1109.7,960.2 1109.6,960.2 1109.5,960.3 1144.2,1020.3 1144.2,1020.2 "/>
<polygon class="st0" points="1213.6,1020.2 1144.3,1020.2 1144.4,1020.3 1144.3,1020.4 1213.6,1020.4 1213.5,1020.3 "/>
<polygon class="st0" points="1144.3,1020.4 1144.4,1020.3 1144.3,1020.2 1144.2,1020.2 1144.2,1020.3 1144.2,1020.4 "/>
<polygon class="st0" points="1213.6,540.3 1144.2,540.3 1144.2,540.2 1109.5,600.2 1144.2,660.3 1213.7,660.3 1248.3,600.3 
	1248.2,600.3 "/>
<polygon class="st0" points="1213.6,540.1 1248.2,480.2 1213.5,420.2 1213.6,420.1 1144.3,420.1 1144.4,420.2 1109.7,480.3 
	1109.6,480.3 1144.2,540.2 1144.2,540.1 "/>
<polygon class="st0" points="1144.4,420.2 1144.3,420.1 1144.2,420.1 1109.5,480.2 1109.6,480.3 1109.7,480.3 "/>
<polygon class="st0" points="1213.6,540.3 1213.5,540.2 1213.6,540.1 1144.2,540.1 1144.2,540.2 1144.2,540.3 "/>
<polygon class="st0" points="1248.2,240.1 1213.6,180.2 1144.3,180.2 1109.7,240.3 1109.6,240.3 1144.2,300.3 1213.6,300.3 
	1213.5,300.2 "/>
<polygon class="st0" points="1144.3,180.2 1144.2,180.2 1144.2,180.1 1109.5,240.1 1109.6,240.3 1109.7,240.3 "/>
<polygon class="st0" points="1213.6,180 1248.2,120.1 1213.6,60.2 1144.3,60.2 1109.7,120.1 1144.3,180 "/>
<polygon class="st0" points="1144.3,180 1109.7,120.1 1109.7,120.2 1109.6,120.2 1144.2,180.1 1144.2,180 "/>
<polygon class="st0" points="1109.7,120.1 1144.3,60.2 1144.2,60.2 1144.2,60.1 1109.6,120 1109.7,120 "/>
<polygon class="st0" points="1109.6,120.2 1109.7,120.2 1109.7,120.1 1109.7,120 1109.6,120 1109.5,120.1 "/>
<polygon class="st0" points="1213.6,180 1144.3,180 1144.4,180.1 1144.3,180.2 1213.6,180.2 1213.5,180.1 "/>
<polygon class="st0" points="1144.3,180 1144.2,180 1144.2,180.1 1144.2,180.2 1144.3,180.2 1144.4,180.1 "/>
<polygon class="st0" points="1248.2,0 1109.7,0 1144.3,60 1213.6,60 "/>
<polygon class="st0" points="1144.2,60.1 1144.2,60 1144.3,60 1109.7,0 1109.6,0 1109.5,0.1 "/>
<polygon class="st0" points="1144.3,60.2 1213.6,60.2 1213.5,60.1 1213.6,60 1144.3,60 1144.4,60.1 "/>
<polygon class="st0" points="1144.3,60.2 1144.4,60.1 1144.3,60 1144.2,60 1144.2,60.1 1144.2,60.2 "/>
<polygon class="st0" points="1317.5,960.3 1317.6,960.2 1248.3,960.2 1248.4,960.3 1213.7,1020.3 1248.2,1080 1317.7,1080 
	1352.2,1020.3 "/>
<polygon class="st0" points="1213.7,1020.4 1213.6,1020.4 1248,1080 1248.2,1080 1213.7,1020.3 "/>
<polygon class="st0" points="1213.6,1020.2 1213.7,1020.2 1213.7,1020.3 1248.4,960.3 1248.3,960.2 1248.2,960.2 "/>
<polygon class="st0" points="1213.6,1020.2 1213.5,1020.3 1213.6,1020.4 1213.7,1020.4 1213.7,1020.3 1213.7,1020.2 "/>
<polygon class="st0" points="1317.7,840.4 1352.4,780.3 1317.7,720.1 1248.2,720.1 1213.5,780.3 1248.2,840.4 "/>
<polygon class="st0" points="1317.6,480.3 1248.3,480.3 1213.7,540.2 1248.4,600.2 1248.3,600.3 1317.7,600.3 1352.3,540.3 
	1352.2,540.3 "/>
<polygon class="st0" points="1213.7,540.2 1213.7,540.3 1213.6,540.3 1248.2,600.3 1248.3,600.3 1248.4,600.2 "/>
<polygon class="st0" points="1248.2,480.2 1213.6,540.1 1213.7,540.1 1213.7,540.2 1248.3,480.3 1248.2,480.3 "/>
<polygon class="st0" points="1213.6,540.1 1213.5,540.2 1213.6,540.3 1213.7,540.3 1213.7,540.2 1213.7,540.1 "/>
<polygon class="st0" points="1248.3,480.1 1317.6,480.1 1352.2,420.1 1352.3,420.1 1317.7,360.2 1317.7,360.3 1248.2,360.3 
	1248.2,360.2 1213.6,420.1 1213.7,420.1 "/>
<polygon class="st0" points="1248.2,480.2 1248.2,480.1 1248.3,480.1 1213.7,420.1 1213.6,420.1 1213.5,420.2 "/>
<polygon class="st0" points="1317.6,480.1 1248.3,480.1 1248.4,480.2 1248.3,480.3 1317.6,480.3 1317.5,480.2 "/>
<polygon class="st0" points="1248.3,480.1 1248.2,480.1 1248.2,480.2 1248.2,480.3 1248.3,480.3 1248.4,480.2 "/>
<polygon class="st0" points="1317.7,360.1 1317.7,360.2 1352.3,300.3 1352.2,300.3 1317.6,240.3 1248.3,240.3 1213.7,300.3 
	1213.6,300.3 1248.2,360.2 1248.2,360.1 "/>
<polygon class="st0" points="1248.3,240.3 1248.2,240.3 1248.2,240.1 1213.5,300.2 1213.6,300.3 1213.7,300.3 "/>
<polygon class="st0" points="1317.7,360.3 1317.7,360.2 1317.7,360.1 1248.2,360.1 1248.2,360.2 1248.2,360.3 "/>
<polygon class="st0" points="1248.3,240 1317.6,240 1352.2,180.1 1317.6,120.2 1248.3,120.2 1213.7,180.1 "/>
<polygon class="st0" points="1248.3,240 1213.7,180.1 1213.7,180.2 1213.6,180.2 1248.2,240.1 1248.2,240 "/>
<polygon class="st0" points="1213.7,180 1213.7,180.1 1248.3,120.2 1248.2,120.2 1248.2,120.1 1213.6,180 "/>
<polygon class="st0" points="1213.7,180.1 1213.7,180 1213.6,180 1213.5,180.1 1213.6,180.2 1213.7,180.2 "/>
<polygon class="st0" points="1317.6,240 1248.3,240 1248.4,240.1 1248.3,240.3 1317.6,240.3 1317.5,240.1 "/>
<polygon class="st0" points="1248.3,240 1248.2,240 1248.2,240.1 1248.2,240.3 1248.3,240.3 1248.4,240.1 "/>
<polygon class="st0" points="1213.7,60.1 1248.3,120 1317.6,120 1352.2,60.1 1317.5,0.1 1317.6,0 1248.3,0 1248.4,0.1 "/>
<polygon class="st0" points="1213.6,60.2 1248.2,120.1 1248.2,120 1248.3,120 1213.7,60.1 1213.7,60.2 "/>
<polygon class="st0" points="1213.6,60 1213.7,60 1213.7,60.1 1248.4,0.1 1248.3,0 1248.2,0 "/>
<polygon class="st0" points="1213.6,60.2 1213.7,60.2 1213.7,60.1 1213.7,60 1213.6,60 1213.5,60.1 "/>
<polygon class="st0" points="1248.3,120.2 1317.6,120.2 1317.5,120.1 1317.6,120 1248.3,120 1248.4,120.1 "/>
<polygon class="st0" points="1248.2,120.1 1248.2,120.2 1248.3,120.2 1248.4,120.1 1248.3,120 1248.2,120 "/>
<polygon class="st0" points="1352.3,1020.4 1317.9,1080 1456,1080 1421.6,1020.4 "/>
<polygon class="st0" points="1352.2,1020.4 1352.2,1020.3 1317.7,1080 1317.9,1080 1352.3,1020.4 "/>
<polygon class="st0" points="1352.3,1020.2 1421.6,1020.2 1456.2,960.3 1421.5,900.3 1421.6,900.2 1352.2,900.2 1317.6,960.2 
	1317.7,960.2 "/>
<polygon class="st0" points="1352.2,1020.3 1352.2,1020.2 1352.3,1020.2 1317.7,960.2 1317.6,960.2 1317.5,960.3 "/>
<polygon class="st0" points="1421.6,1020.2 1352.3,1020.2 1352.4,1020.3 1352.3,1020.4 1421.6,1020.4 1421.5,1020.3 "/>
<polygon class="st0" points="1352.3,1020.2 1352.2,1020.2 1352.2,1020.3 1352.2,1020.4 1352.3,1020.4 1352.4,1020.3 "/>
<polygon class="st0" points="1456.2,480.2 1421.5,420.2 1421.6,420.1 1352.3,420.1 1352.4,420.2 1317.7,480.2 1352.4,540.2 
	1352.3,540.3 1421.6,540.3 1421.5,540.2 "/>
<polygon class="st0" points="1317.7,480.2 1317.7,480.3 1317.6,480.3 1352.2,540.3 1352.3,540.3 1352.4,540.2 "/>
<polygon class="st0" points="1317.6,480.1 1317.7,480.1 1317.7,480.2 1352.4,420.2 1352.3,420.1 1352.2,420.1 "/>
<polygon class="st0" points="1317.6,480.1 1317.5,480.2 1317.6,480.3 1317.7,480.3 1317.7,480.2 1317.7,480.1 "/>
<polygon class="st0" points="1421.5,300.2 1456.2,240.1 1421.6,180.2 1352.3,180.2 1317.7,240.1 1352.4,300.2 1352.3,300.3 
	1421.6,300.3 "/>
<polygon class="st0" points="1317.7,240.1 1317.7,240.3 1317.6,240.3 1352.2,300.3 1352.3,300.3 1352.4,300.2 "/>
<polygon class="st0" points="1352.2,180.1 1317.6,240 1317.7,240 1317.7,240.1 1352.3,180.2 1352.2,180.2 "/>
<polygon class="st0" points="1317.7,240.1 1317.7,240 1317.6,240 1317.5,240.1 1317.6,240.3 1317.7,240.3 "/>
<polygon class="st0" points="1421.6,180 1456.2,120.1 1421.6,60.2 1352.3,60.2 1317.7,120.1 1352.3,180 "/>
<polygon class="st0" points="1352.2,180 1352.3,180 1317.7,120.1 1317.7,120.2 1317.6,120.2 1352.2,180.1 "/>
<polygon class="st0" points="1317.7,120.1 1352.3,60.2 1352.2,60.2 1352.2,60.1 1317.6,120 1317.7,120 "/>
<polygon class="st0" points="1317.6,120.2 1317.7,120.2 1317.7,120.1 1317.7,120 1317.6,120 1317.5,120.1 "/>
<polygon class="st0" points="1421.6,180 1352.3,180 1352.4,180.1 1352.3,180.2 1421.6,180.2 1421.5,180.1 "/>
<polygon class="st0" points="1352.3,180 1352.2,180 1352.2,180.1 1352.2,180.2 1352.3,180.2 1352.4,180.1 "/>
<polygon class="st0" points="1456.2,0 1317.7,0 1352.3,60 1421.6,60 "/>
<polygon class="st0" points="1352.2,60.1 1352.2,60 1352.3,60 1317.7,0 1317.6,0 1317.5,0.1 "/>
<polygon class="st0" points="1352.3,60.2 1421.6,60.2 1421.5,60.1 1421.6,60 1352.3,60 1352.4,60.1 "/>
<polygon class="st0" points="1352.3,60.2 1352.4,60.1 1352.3,60 1352.2,60 1352.2,60.1 1352.2,60.2 "/>
<polygon class="st0" points="1525.6,960.4 1456.3,960.4 1421.7,1020.3 1456.2,1080 1525.7,1080 1560.2,1020.3 "/>
<polygon class="st0" points="1421.7,1020.4 1421.6,1020.4 1456,1080 1456.2,1080 1421.7,1020.3 "/>
<polygon class="st0" points="1456.2,960.3 1421.6,1020.2 1421.7,1020.2 1421.7,1020.3 1456.3,960.4 1456.2,960.4 "/>
<polygon class="st0" points="1421.6,1020.2 1421.5,1020.3 1421.6,1020.4 1421.7,1020.4 1421.7,1020.3 1421.7,1020.2 "/>
<polygon class="st0" points="1456.3,960.2 1525.6,960.2 1560.2,900.3 1525.5,840.3 1525.6,840.2 1456.2,840.2 1421.6,900.2 
	1421.7,900.2 "/>
<polygon class="st0" points="1456.2,960.3 1456.2,960.2 1456.3,960.2 1421.7,900.2 1421.6,900.2 1421.5,900.3 "/>
<polygon class="st0" points="1525.6,960.2 1456.3,960.2 1456.4,960.3 1456.3,960.4 1525.6,960.4 1525.5,960.3 "/>
<polygon class="st0" points="1456.3,960.2 1456.2,960.2 1456.2,960.3 1456.2,960.4 1456.3,960.4 1456.4,960.3 "/>
<polygon class="st0" points="1560.2,540.2 1525.6,480.3 1456.3,480.3 1421.7,540.3 1421.6,540.3 1456.2,600.3 1525.6,600.3 
	1525.5,600.2 "/>
<polygon class="st0" points="1456.3,480.3 1456.2,480.3 1456.2,480.2 1421.5,540.2 1421.6,540.3 1421.7,540.3 "/>
<polygon class="st0" points="1456.3,480.1 1525.6,480.1 1560.2,420.2 1525.6,360.3 1456.2,360.3 1456.2,360.2 1421.6,420.1 
	1421.7,420.1 "/>
<polygon class="st0" points="1456.3,480.1 1421.7,420.1 1421.6,420.1 1421.5,420.2 1456.2,480.2 1456.2,480.1 "/>
<polygon class="st0" points="1525.6,480.1 1456.3,480.1 1456.4,480.2 1456.3,480.3 1525.6,480.3 1525.5,480.2 "/>
<polygon class="st0" points="1456.3,480.1 1456.2,480.1 1456.2,480.2 1456.2,480.3 1456.3,480.3 1456.4,480.2 "/>
<polygon class="st0" points="1525.6,360.1 1560.2,300.1 1525.6,240.3 1456.3,240.3 1421.7,300.3 1421.6,300.3 1456.2,360.2 
	1456.2,360.1 "/>
<polygon class="st0" points="1456.3,240.3 1456.2,240.3 1456.2,240.1 1421.5,300.2 1421.6,300.3 1421.7,300.3 "/>
<polygon class="st0" points="1525.6,360.1 1456.2,360.1 1456.2,360.2 1456.2,360.3 1525.6,360.3 1525.5,360.2 "/>
<polygon class="st0" points="1456.3,240 1525.6,240 1560.2,180.1 1525.6,120.2 1456.3,120.2 1421.7,180.1 "/>
<polygon class="st0" points="1456.3,240 1421.7,180.1 1421.7,180.2 1421.6,180.2 1456.2,240.1 1456.2,240 "/>
<polygon class="st0" points="1421.7,180 1421.7,180.1 1456.3,120.2 1456.2,120.2 1456.2,120.1 1421.6,180 "/>
<polygon class="st0" points="1421.7,180.1 1421.7,180 1421.6,180 1421.5,180.1 1421.6,180.2 1421.7,180.2 "/>
<polygon class="st0" points="1456.3,240.3 1525.6,240.3 1525.5,240.1 1525.6,240 1456.3,240 1456.4,240.1 "/>
<polygon class="st0" points="1456.3,240.3 1456.4,240.1 1456.3,240 1456.2,240 1456.2,240.1 1456.2,240.3 "/>
<polygon class="st0" points="1421.7,60.1 1456.3,120 1525.6,120 1560.2,60.1 1525.5,0.1 1525.6,0 1456.3,0 1456.4,0.1 "/>
<polygon class="st0" points="1421.6,60.2 1456.2,120.1 1456.2,120 1456.3,120 1421.7,60.1 1421.7,60.2 "/>
<polygon class="st0" points="1421.6,60 1421.7,60 1421.7,60.1 1456.4,0.1 1456.3,0 1456.2,0 "/>
<polygon class="st0" points="1421.6,60.2 1421.7,60.2 1421.7,60.1 1421.7,60 1421.6,60 1421.5,60.1 "/>
<polygon class="st0" points="1456.3,120.2 1525.6,120.2 1525.5,120.1 1525.6,120 1456.3,120 1456.4,120.1 "/>
<polygon class="st0" points="1456.2,120.1 1456.2,120.2 1456.3,120.2 1456.4,120.1 1456.3,120 1456.2,120 "/>
<polygon class="st0" points="1560.3,1020.4 1525.9,1080 1664,1080 1629.6,1020.4 "/>
<polygon class="st0" points="1560.2,1020.4 1560.2,1020.3 1525.7,1080 1525.9,1080 1560.3,1020.4 "/>
<polygon class="st0" points="1629.7,900.4 1560.3,900.4 1525.7,960.3 1560.3,1020.2 1629.6,1020.2 1664.2,960.2 1664.3,960.2 
	1629.7,900.3 "/>
<polygon class="st0" points="1560.3,1020.2 1525.7,960.3 1525.7,960.4 1525.6,960.4 1560.2,1020.3 1560.2,1020.2 "/>
<polygon class="st0" points="1525.7,960.3 1560.3,900.4 1560.2,900.4 1560.2,900.3 1525.6,960.2 1525.7,960.2 "/>
<polygon class="st0" points="1525.7,960.3 1525.7,960.2 1525.6,960.2 1525.5,960.3 1525.6,960.4 1525.7,960.4 "/>
<polygon class="st0" points="1629.6,1020.2 1560.3,1020.2 1560.4,1020.3 1560.3,1020.4 1629.6,1020.4 1629.5,1020.3 "/>
<polygon class="st0" points="1560.3,1020.2 1560.2,1020.2 1560.2,1020.3 1560.2,1020.4 1560.3,1020.4 1560.4,1020.3 "/>
<polygon class="st0" points="1560.3,900.2 1629.7,900.2 1629.7,900.3 1664.3,840.4 1664.2,840.4 1629.5,780.3 1629.6,780.1 
	1560.2,780.1 1525.6,840.2 1525.7,840.2 "/>
<polygon class="st0" points="1560.2,900.3 1560.2,900.2 1560.3,900.2 1525.7,840.2 1525.6,840.2 1525.5,840.3 "/>
<polygon class="st0" points="1560.3,900.4 1629.7,900.4 1629.7,900.3 1629.7,900.2 1560.3,900.2 1560.4,900.3 "/>
<polygon class="st0" points="1560.3,900.4 1560.4,900.3 1560.3,900.2 1560.2,900.2 1560.2,900.3 1560.2,900.4 "/>
<polygon class="st0" points="1629.6,420.3 1560.3,420.3 1525.7,480.2 1560.3,540.1 1629.6,540.1 1664.2,480.2 "/>
<polygon class="st0" points="1560.3,540.1 1525.7,480.2 1525.7,480.3 1525.6,480.3 1560.2,540.2 1560.2,540.1 "/>
<polygon class="st0" points="1560.2,420.3 1560.2,420.2 1525.6,480.1 1525.7,480.1 1525.7,480.2 1560.3,420.3 "/>
<polygon class="st0" points="1525.7,480.2 1525.7,480.1 1525.6,480.1 1525.5,480.2 1525.6,480.3 1525.7,480.3 "/>
<polygon class="st0" points="1664.2,600.2 1629.6,540.3 1560.3,540.3 1525.7,600.3 1525.6,600.3 1560.2,660.3 1629.6,660.3 
	1629.5,660.2 "/>
<polygon class="st0" points="1560.3,540.3 1560.2,540.3 1560.2,540.2 1525.5,600.2 1525.6,600.3 1525.7,600.3 "/>
<polygon class="st0" points="1629.6,540.1 1560.3,540.1 1560.4,540.2 1560.3,540.3 1629.6,540.3 1629.5,540.2 "/>
<polygon class="st0" points="1560.3,540.1 1560.2,540.1 1560.2,540.2 1560.2,540.3 1560.3,540.3 1560.4,540.2 "/>
<polygon class="st0" points="1664.2,360.2 1629.6,300.3 1560.3,300.3 1525.7,360.2 1560.3,420.1 1629.6,420.1 "/>
<polygon class="st0" points="1560.3,420.1 1525.7,360.2 1525.7,360.3 1525.6,360.3 1560.2,420.2 1560.2,420.1 "/>
<polygon class="st0" points="1560.2,300.3 1560.2,300.1 1525.6,360.1 1525.7,360.1 1525.7,360.2 1560.3,300.3 "/>
<polygon class="st0" points="1525.7,360.2 1525.7,360.1 1525.6,360.1 1525.5,360.2 1525.6,360.3 1525.7,360.3 "/>
<polygon class="st0" points="1629.6,420.1 1560.3,420.1 1560.4,420.2 1560.3,420.3 1629.6,420.3 1629.5,420.2 "/>
<polygon class="st0" points="1560.3,420.3 1560.4,420.2 1560.3,420.1 1560.2,420.1 1560.2,420.2 1560.2,420.3 "/>
<polygon class="st0" points="1560.3,180.2 1525.7,240.1 1560.3,300 1629.6,300 1664.2,240 1664.3,240 1629.7,180.1 1629.7,180.2 "/>
<polygon class="st0" points="1525.6,240.3 1560.2,300.1 1560.2,300 1560.3,300 1525.7,240.1 1525.7,240.3 "/>
<polygon class="st0" points="1525.7,240.1 1560.3,180.2 1560.2,180.2 1560.2,180.1 1525.6,240 1525.7,240 "/>
<polygon class="st0" points="1525.6,240.3 1525.7,240.3 1525.7,240.1 1525.7,240 1525.6,240 1525.5,240.1 "/>
<polygon class="st0" points="1560.3,300.3 1629.6,300.3 1629.5,300.2 1629.6,300 1560.3,300 1560.4,300.2 "/>
<polygon class="st0" points="1560.2,300.1 1560.2,300.3 1560.3,300.3 1560.4,300.2 1560.3,300 1560.2,300 "/>
<polygon class="st0" points="1629.6,60.2 1560.3,60.2 1525.7,120.1 1560.3,180 1629.7,180 1629.7,180.1 1664.3,120.2 1664.2,120.2 
	"/>
<polygon class="st0" points="1560.2,180 1560.3,180 1525.7,120.1 1525.7,120.2 1525.6,120.2 1560.2,180.1 "/>
<polygon class="st0" points="1525.7,120.1 1560.3,60.2 1560.2,60.2 1560.2,60.1 1525.6,120 1525.7,120 "/>
<polygon class="st0" points="1525.6,120.2 1525.7,120.2 1525.7,120.1 1525.7,120 1525.6,120 1525.5,120.1 "/>
<polygon class="st0" points="1560.3,180.2 1629.7,180.2 1629.7,180.1 1629.7,180 1560.3,180 1560.4,180.1 "/>
<polygon class="st0" points="1560.2,180.1 1560.2,180.2 1560.3,180.2 1560.4,180.1 1560.3,180 1560.2,180 "/>
<polygon class="st0" points="1664.2,0 1525.7,0 1560.3,60 1629.6,60 "/>
<polygon class="st0" points="1560.2,60.1 1560.2,60 1560.3,60 1525.7,0 1525.6,0 1525.5,0.1 "/>
<polygon class="st0" points="1560.3,60.2 1629.6,60.2 1629.5,60.1 1629.6,60 1560.3,60 1560.4,60.1 "/>
<polygon class="st0" points="1560.3,60.2 1560.4,60.1 1560.3,60 1560.2,60 1560.2,60.1 1560.2,60.2 "/>
<polygon class="st0" points="1733.5,960.3 1733.6,960.2 1664.3,960.2 1664.4,960.3 1629.7,1020.3 1664.2,1080 1733.7,1080 
	1768.2,1020.3 "/>
<polygon class="st0" points="1629.7,1020.4 1629.6,1020.4 1664,1080 1664.2,1080 1629.7,1020.3 "/>
<polygon class="st0" points="1629.6,1020.2 1629.7,1020.2 1629.7,1020.3 1664.4,960.3 1664.3,960.2 1664.2,960.2 "/>
<polygon class="st0" points="1629.6,1020.2 1629.5,1020.3 1629.6,1020.4 1629.7,1020.4 1629.7,1020.3 1629.7,1020.2 "/>
<polygon class="st0" points="1664.4,840.3 1664.3,840.4 1733.6,840.4 1733.5,840.3 1768.2,780.2 1733.6,720.3 1664.2,720.3 
	1664.2,720.2 1629.6,780.1 1629.7,780.1 "/>
<polygon class="st0" points="1664.2,840.4 1664.3,840.4 1664.4,840.3 1629.7,780.1 1629.6,780.1 1629.5,780.3 "/>
<polygon class="st0" points="1733.6,720.1 1768.2,660.2 1733.6,600.3 1664.3,600.3 1629.7,660.3 1629.6,660.3 1664.2,720.2 
	1664.2,720.1 "/>
<polygon class="st0" points="1664.3,600.3 1664.2,600.3 1664.2,600.2 1629.5,660.2 1629.6,660.3 1629.7,660.3 "/>
<polygon class="st0" points="1733.6,720.3 1733.5,720.2 1733.6,720.1 1664.2,720.1 1664.2,720.2 1664.2,720.3 "/>
<polygon class="st0" points="1733.6,480.3 1664.3,480.3 1629.7,540.2 1664.3,600.1 1733.6,600.1 1768.2,540.2 "/>
<polygon class="st0" points="1664.2,480.3 1664.2,480.2 1629.6,540.1 1629.7,540.1 1629.7,540.2 1664.3,480.3 "/>
<polygon class="st0" points="1664.3,600.1 1629.7,540.2 1629.7,540.3 1629.6,540.3 1664.2,600.2 1664.2,600.1 "/>
<polygon class="st0" points="1629.7,540.2 1629.7,540.1 1629.6,540.1 1629.5,540.2 1629.6,540.3 1629.7,540.3 "/>
<polygon class="st0" points="1733.6,600.1 1664.3,600.1 1664.4,600.2 1664.3,600.3 1733.6,600.3 1733.5,600.2 "/>
<polygon class="st0" points="1664.3,600.1 1664.2,600.1 1664.2,600.2 1664.2,600.3 1664.3,600.3 1664.4,600.2 "/>
<polygon class="st0" points="1664.3,480.1 1733.6,480.1 1768.2,420.2 1733.6,360.3 1664.3,360.3 1629.7,420.2 "/>
<polygon class="st0" points="1664.3,480.1 1629.7,420.2 1629.7,420.3 1629.6,420.3 1664.2,480.2 1664.2,480.1 "/>
<polygon class="st0" points="1629.7,420.1 1629.7,420.2 1664.3,360.3 1664.2,360.3 1664.2,360.2 1629.6,420.1 "/>
<polygon class="st0" points="1629.7,420.2 1629.7,420.1 1629.6,420.1 1629.5,420.2 1629.6,420.3 1629.7,420.3 "/>
<polygon class="st0" points="1733.6,480.1 1664.3,480.1 1664.4,480.2 1664.3,480.3 1733.6,480.3 1733.5,480.2 "/>
<polygon class="st0" points="1664.3,480.1 1664.2,480.1 1664.2,480.2 1664.2,480.3 1664.3,480.3 1664.4,480.2 "/>
<polygon class="st0" points="1629.7,300.1 1664.3,360.1 1733.6,360.1 1768.2,300.1 1733.5,240.1 1733.6,240 1664.3,240 
	1664.4,240.1 "/>
<polygon class="st0" points="1629.6,300.3 1664.2,360.2 1664.2,360.1 1664.3,360.1 1629.7,300.1 1629.7,300.3 "/>
<polygon class="st0" points="1629.6,300 1629.7,300 1629.7,300.1 1664.4,240.1 1664.3,240 1664.2,240 "/>
<polygon class="st0" points="1629.6,300.3 1629.7,300.3 1629.7,300.1 1629.7,300 1629.6,300 1629.5,300.2 "/>
<polygon class="st0" points="1664.3,360.3 1733.6,360.3 1733.5,360.2 1733.6,360.1 1664.3,360.1 1664.4,360.2 "/>
<polygon class="st0" points="1664.2,360.2 1664.2,360.3 1664.3,360.3 1664.4,360.2 1664.3,360.1 1664.2,360.1 "/>
<polygon class="st0" points="1629.7,60.1 1664.4,120.1 1664.3,120.2 1733.6,120.2 1733.5,120.1 1768.2,60.1 1733.5,0.1 1733.6,0 
	1664.3,0 1664.4,0.1 "/>
<polygon class="st0" points="1629.6,60.2 1664.2,120.2 1664.3,120.2 1664.4,120.1 1629.7,60.1 1629.7,60.2 "/>
<polygon class="st0" points="1629.6,60 1629.7,60 1629.7,60.1 1664.4,0.1 1664.3,0 1664.2,0 "/>
<polygon class="st0" points="1629.6,60.2 1629.7,60.2 1629.7,60.1 1629.7,60 1629.6,60 1629.5,60.1 "/>
<polygon class="st0" points="1768.3,1020.4 1733.9,1080 1872,1080 1837.6,1020.4 "/>
<polygon class="st0" points="1768.2,1020.4 1768.2,1020.3 1733.7,1080 1733.9,1080 1768.3,1020.4 "/>
<polygon class="st0" points="1768.3,1020.2 1837.6,1020.2 1872.2,960.3 1837.6,900.4 1768.2,900.4 1768.2,900.3 1733.6,960.2 
	1733.7,960.2 "/>
<polygon class="st0" points="1768.3,1020.2 1733.7,960.2 1733.6,960.2 1733.5,960.3 1768.2,1020.3 1768.2,1020.2 "/>
<polygon class="st0" points="1837.6,1020.2 1768.3,1020.2 1768.4,1020.3 1768.3,1020.4 1837.6,1020.4 1837.5,1020.3 "/>
<polygon class="st0" points="1768.3,1020.2 1768.2,1020.2 1768.2,1020.3 1768.2,1020.4 1768.3,1020.4 1768.4,1020.3 "/>
<polygon class="st0" points="1768.2,900.2 1837.6,900.2 1872.2,840.3 1837.6,780.3 1768.3,780.3 1733.7,840.4 1733.6,840.4 
	1768.2,900.3 "/>
<polygon class="st0" points="1768.3,780.3 1768.2,780.3 1768.2,780.2 1733.5,840.3 1733.6,840.4 1733.7,840.4 "/>
<polygon class="st0" points="1768.2,900.3 1768.2,900.4 1837.6,900.4 1837.5,900.3 1837.6,900.2 1768.2,900.2 "/>
<polygon class="st0" points="1733.7,720.2 1768.3,780.1 1837.6,780.1 1872.2,720.2 1837.6,660.3 1768.3,660.3 "/>
<polygon class="st0" points="1768.3,780.1 1733.7,720.2 1733.7,720.3 1733.6,720.3 1768.2,780.2 1768.2,780.1 "/>
<polygon class="st0" points="1733.7,720.2 1768.3,660.3 1768.2,660.3 1768.2,660.2 1733.6,720.1 1733.7,720.1 "/>
<polygon class="st0" points="1733.7,720.2 1733.7,720.1 1733.6,720.1 1733.5,720.2 1733.6,720.3 1733.7,720.3 "/>
<polygon class="st0" points="1768.4,780.3 1768.3,780.3 1837.6,780.3 1837.5,780.3 1837.6,780.1 1768.3,780.1 "/>
<polygon class="st0" points="1768.3,780.3 1768.4,780.3 1768.3,780.1 1768.2,780.1 1768.2,780.2 1768.2,780.3 "/>
<polygon class="st0" points="1733.7,600.2 1768.3,660.1 1837.6,660.1 1872.2,600.2 1837.6,540.3 1768.3,540.3 "/>
<polygon class="st0" points="1768.3,660.1 1733.7,600.2 1733.7,600.3 1733.6,600.3 1768.2,660.2 1768.2,660.1 "/>
<polygon class="st0" points="1768.2,540.3 1768.2,540.2 1733.6,600.1 1733.7,600.1 1733.7,600.2 1768.3,540.3 "/>
<polygon class="st0" points="1733.7,600.2 1733.7,600.1 1733.6,600.1 1733.5,600.2 1733.6,600.3 1733.7,600.3 "/>
<polygon class="st0" points="1768.4,660.2 1768.3,660.3 1837.6,660.3 1837.5,660.2 1837.6,660.1 1768.3,660.1 "/>
<polygon class="st0" points="1768.3,660.3 1768.4,660.2 1768.3,660.1 1768.2,660.1 1768.2,660.2 1768.2,660.3 "/>
<polygon class="st0" points="1733.7,480.2 1768.3,540.1 1837.6,540.1 1872.2,480.2 1837.6,420.3 1768.3,420.3 "/>
<polygon class="st0" points="1733.6,480.3 1768.2,540.2 1768.2,540.1 1768.3,540.1 1733.7,480.2 1733.7,480.3 "/>
<polygon class="st0" points="1768.2,420.2 1733.6,480.1 1733.7,480.1 1733.7,480.2 1768.3,420.3 1768.2,420.3 "/>
<polygon class="st0" points="1733.6,480.1 1733.5,480.2 1733.6,480.3 1733.7,480.3 1733.7,480.2 1733.7,480.1 "/>
<polygon class="st0" points="1768.4,540.2 1768.3,540.3 1837.6,540.3 1837.5,540.2 1837.6,540.1 1768.3,540.1 "/>
<polygon class="st0" points="1768.2,540.2 1768.2,540.3 1768.3,540.3 1768.4,540.2 1768.3,540.1 1768.2,540.1 "/>
<polygon class="st0" points="1733.7,360.2 1768.3,420.1 1837.6,420.1 1872.2,360.2 1837.6,300.3 1768.3,300.3 "/>
<polygon class="st0" points="1733.6,360.3 1768.2,420.2 1768.2,420.1 1768.3,420.1 1733.7,360.2 1733.7,360.3 "/>
<polygon class="st0" points="1733.7,360.2 1768.3,300.3 1768.2,300.3 1768.2,300.1 1733.6,360.1 1733.7,360.1 "/>
<polygon class="st0" points="1733.6,360.3 1733.7,360.3 1733.7,360.2 1733.7,360.1 1733.6,360.1 1733.5,360.2 "/>
<polygon class="st0" points="1768.4,420.2 1768.3,420.3 1837.6,420.3 1837.5,420.2 1837.6,420.1 1768.3,420.1 "/>
<polygon class="st0" points="1768.2,420.2 1768.2,420.3 1768.3,420.3 1768.4,420.2 1768.3,420.1 1768.2,420.1 "/>
<polygon class="st0" points="1768.3,300 1837.6,300 1872.2,240.1 1837.6,180.2 1768.2,180.2 1768.2,180.1 1733.6,240 1733.7,240 "/>
<polygon class="st0" points="1768.2,300.1 1768.2,300 1768.3,300 1733.7,240 1733.6,240 1733.5,240.1 "/>
<polygon class="st0" points="1768.4,300.2 1768.3,300.3 1837.6,300.3 1837.5,300.2 1837.6,300 1768.3,300 "/>
<polygon class="st0" points="1768.3,300.3 1768.4,300.2 1768.3,300 1768.2,300 1768.2,300.1 1768.2,300.3 "/>
<polygon class="st0" points="1768.2,180 1837.6,180 1872.2,120.1 1837.6,60.2 1768.3,60.2 1733.7,120.2 1733.6,120.2 1768.2,180.1 
	"/>
<polygon class="st0" points="1768.3,60.2 1768.2,60.2 1768.2,60.1 1733.5,120.1 1733.6,120.2 1733.7,120.2 "/>
<polygon class="st0" points="1837.6,180.2 1837.5,180.1 1837.6,180 1768.2,180 1768.2,180.1 1768.2,180.2 "/>
<polygon class="st0" points="1872.2,0 1733.7,0 1768.3,60 1837.6,60 "/>
<polygon class="st0" points="1768.2,60.1 1768.2,60 1768.3,60 1733.7,0 1733.6,0 1733.5,0.1 "/>
<polygon class="st0" points="1768.3,60.2 1837.6,60.2 1837.5,60.1 1837.6,60 1768.3,60 1768.4,60.1 "/>
<polygon class="st0" points="1768.3,60.2 1768.4,60.1 1768.3,60 1768.2,60 1768.2,60.1 1768.2,60.2 "/>
<polygon class="st0" points="1837.7,1020.3 1872.2,1080 1922,1080 1922,960.4 1872.3,960.4 "/>
<polygon class="st0" points="1837.7,1020.4 1837.6,1020.4 1872,1080 1872.2,1080 1837.7,1020.3 "/>
<polygon class="st0" points="1872.2,960.3 1837.6,1020.2 1837.7,1020.2 1837.7,1020.3 1872.3,960.4 1872.2,960.4 "/>
<polygon class="st0" points="1837.6,1020.2 1837.5,1020.3 1837.6,1020.4 1837.7,1020.4 1837.7,1020.3 1837.7,1020.2 "/>
<polygon class="st0" points="1837.7,900.3 1872.3,960.2 1922,960.2 1922,840.4 1872.3,840.4 "/>
<polygon class="st0" points="1837.6,900.4 1872.2,960.3 1872.2,960.2 1872.3,960.2 1837.7,900.3 1837.7,900.4 "/>
<polygon class="st0" points="1872.2,840.3 1837.6,900.2 1837.7,900.2 1837.7,900.3 1872.3,840.4 1872.2,840.4 "/>
<polygon class="st0" points="1837.6,900.2 1837.5,900.3 1837.6,900.4 1837.7,900.4 1837.7,900.3 1837.7,900.2 "/>
<polygon class="st0" points="1872.4,960.3 1872.3,960.4 1922,960.4 1922,960.2 1872.3,960.2 "/>
<polygon class="st0" points="1872.2,960.3 1872.2,960.4 1872.3,960.4 1872.4,960.3 1872.3,960.2 1872.2,960.2 "/>
<polygon class="st0" points="1837.7,780.2 1872.3,840.2 1922,840.2 1922,720.3 1872.3,720.3 "/>
<polygon class="st0" points="1837.6,780.3 1872.2,840.3 1872.2,840.2 1872.3,840.2 1837.7,780.2 1837.7,780.3 "/>
<polygon class="st0" points="1872.2,720.2 1837.6,780.1 1837.7,780.1 1837.7,780.2 1872.3,720.3 1872.2,720.3 "/>
<polygon class="st0" points="1837.6,780.1 1837.5,780.3 1837.6,780.3 1837.7,780.3 1837.7,780.2 1837.7,780.1 "/>
<polygon class="st0" points="1872.4,840.3 1872.3,840.4 1922,840.4 1922,840.2 1872.3,840.2 "/>
<polygon class="st0" points="1872.2,840.3 1872.2,840.4 1872.3,840.4 1872.4,840.3 1872.3,840.2 1872.2,840.2 "/>
<polygon class="st0" points="1837.7,660.2 1872.3,720.1 1922,720.1 1922,600.3 1872.3,600.3 "/>
<polygon class="st0" points="1837.6,660.3 1872.2,720.2 1872.2,720.1 1872.3,720.1 1837.7,660.2 1837.7,660.3 "/>
<polygon class="st0" points="1872.2,600.2 1837.6,660.1 1837.7,660.1 1837.7,660.2 1872.3,600.3 1872.2,600.3 "/>
<polygon class="st0" points="1837.6,660.1 1837.5,660.2 1837.6,660.3 1837.7,660.3 1837.7,660.2 1837.7,660.1 "/>
<polygon class="st0" points="1872.4,720.2 1872.3,720.3 1922,720.3 1922,720.1 1872.3,720.1 "/>
<polygon class="st0" points="1872.2,720.2 1872.2,720.3 1872.3,720.3 1872.4,720.2 1872.3,720.1 1872.2,720.1 "/>
<polygon class="st0" points="1837.7,540.2 1872.3,600.1 1922,600.1 1922,480.3 1872.3,480.3 "/>
<polygon class="st0" points="1837.6,540.3 1872.2,600.2 1872.2,600.1 1872.3,600.1 1837.7,540.2 1837.7,540.3 "/>
<polygon class="st0" points="1872.2,480.2 1837.6,540.1 1837.7,540.1 1837.7,540.2 1872.3,480.3 1872.2,480.3 "/>
<polygon class="st0" points="1837.6,540.1 1837.5,540.2 1837.6,540.3 1837.7,540.3 1837.7,540.2 1837.7,540.1 "/>
<polygon class="st0" points="1872.4,600.2 1872.3,600.3 1922,600.3 1922,600.1 1872.3,600.1 "/>
<polygon class="st0" points="1872.2,600.2 1872.2,600.3 1872.3,600.3 1872.4,600.2 1872.3,600.1 1872.2,600.1 "/>
<polygon class="st0" points="1837.7,420.2 1872.3,480.1 1922,480.1 1922,360.3 1872.3,360.3 "/>
<polygon class="st0" points="1837.6,420.3 1872.2,480.2 1872.2,480.1 1872.3,480.1 1837.7,420.2 1837.7,420.3 "/>
<polygon class="st0" points="1872.2,360.2 1837.6,420.1 1837.7,420.1 1837.7,420.2 1872.3,360.3 1872.2,360.3 "/>
<polygon class="st0" points="1837.6,420.1 1837.5,420.2 1837.6,420.3 1837.7,420.3 1837.7,420.2 1837.7,420.1 "/>
<polygon class="st0" points="1872.4,480.2 1872.3,480.3 1922,480.3 1922,480.1 1872.3,480.1 "/>
<polygon class="st0" points="1872.2,480.2 1872.2,480.3 1872.3,480.3 1872.4,480.2 1872.3,480.1 1872.2,480.1 "/>
<polygon class="st0" points="1837.7,300.1 1872.3,360.1 1922,360.1 1922,240.3 1872.3,240.3 "/>
<polygon class="st0" points="1837.6,300.3 1872.2,360.2 1872.2,360.1 1872.3,360.1 1837.7,300.1 1837.7,300.3 "/>
<polygon class="st0" points="1872.2,240.1 1837.6,300 1837.7,300 1837.7,300.1 1872.3,240.3 1872.2,240.3 "/>
<polygon class="st0" points="1837.6,300 1837.5,300.2 1837.6,300.3 1837.7,300.3 1837.7,300.1 1837.7,300 "/>
<polygon class="st0" points="1872.4,360.2 1872.3,360.3 1922,360.3 1922,360.1 1872.3,360.1 "/>
<polygon class="st0" points="1872.2,360.2 1872.2,360.3 1872.3,360.3 1872.4,360.2 1872.3,360.1 1872.2,360.1 "/>
<polygon class="st0" points="1837.7,180.1 1872.3,240 1922,240 1922,120.2 1872.3,120.2 "/>
<polygon class="st0" points="1837.6,180.2 1872.2,240.1 1872.2,240 1872.3,240 1837.7,180.1 1837.7,180.2 "/>
<polygon class="st0" points="1872.2,120.1 1837.6,180 1837.7,180 1837.7,180.1 1872.3,120.2 1872.2,120.2 "/>
<polygon class="st0" points="1837.6,180 1837.5,180.1 1837.6,180.2 1837.7,180.2 1837.7,180.1 1837.7,180 "/>
<polygon class="st0" points="1872.4,240.1 1872.3,240.3 1922,240.3 1922,240 1872.3,240 "/>
<polygon class="st0" points="1872.2,240.1 1872.2,240.3 1872.3,240.3 1872.4,240.1 1872.3,240 1872.2,240 "/>
<polygon class="st0" points="1837.7,60.1 1872.3,120 1922,120 1922,0 1872.3,0 1872.4,0.1 "/>
<polygon class="st0" points="1837.6,60.2 1872.2,120.1 1872.2,120 1872.3,120 1837.7,60.1 1837.7,60.2 "/>
<polygon class="st0" points="1837.6,60 1837.7,60 1837.7,60.1 1872.4,0.1 1872.3,0 1872.2,0 "/>
<polygon class="st0" points="1837.6,60.2 1837.7,60.2 1837.7,60.1 1837.7,60 1837.6,60 1837.5,60.1 "/>
<polygon class="st0" points="1872.4,120.1 1872.3,120.2 1922,120.2 1922,120 1872.3,120 "/>
<polygon class="st0" points="1872.2,120.1 1872.2,120.2 1872.3,120.2 1872.4,120.1 1872.3,120 1872.2,120 "/>
<polygon class="st0" points="69.7,1080 2,1080 2,1080.4 69.6,1080.4 69.5,1080.3 "/>
<polygon class="st0" points="69.9,1080 69.7,1080 69.5,1080.3 69.6,1080.4 69.7,1080.4 "/>
<polygon class="st0" points="485.7,1080 416,1080 416.2,1080.4 485.6,1080.4 485.5,1080.3 "/>
<polygon class="st0" points="485.9,1080 485.7,1080 485.5,1080.3 485.6,1080.4 485.7,1080.4 "/>
<polygon class="st0" points="693.7,1080 624.2,1080 624.4,1080.3 624.3,1080.4 693.6,1080.4 693.5,1080.3 "/>
<polygon class="st0" points="624.2,1080 624,1080 624.2,1080.4 624.3,1080.4 624.4,1080.3 "/>
<polygon class="st0" points="693.9,1080 693.7,1080 693.5,1080.3 693.6,1080.4 693.7,1080.4 "/>
<polygon class="st0" points="832.4,1080.3 832.3,1080.4 901.7,1080.4 901.9,1080 832.2,1080 "/>
<polygon class="st0" points="832.2,1080 832,1080 832.2,1080.4 832.3,1080.4 832.4,1080.3 "/>
<polygon class="st0" points="1109.7,1080 1040,1080 1040.2,1080.4 1109.6,1080.4 1109.5,1080.3 "/>
<polygon class="st0" points="1109.9,1080 1109.7,1080 1109.5,1080.3 1109.6,1080.4 1109.7,1080.4 "/>
<polygon class="st0" points="1317.7,1080 1248.2,1080 1248.4,1080.3 1248.3,1080.4 1317.6,1080.4 1317.5,1080.3 "/>
<polygon class="st0" points="1248.2,1080 1248,1080 1248.2,1080.4 1248.3,1080.4 1248.4,1080.3 "/>
<polygon class="st0" points="1317.9,1080 1317.7,1080 1317.5,1080.3 1317.6,1080.4 1317.7,1080.4 "/>
<polygon class="st0" points="1525.7,1080 1456.2,1080 1456.4,1080.3 1456.3,1080.4 1525.6,1080.4 1525.5,1080.3 "/>
<polygon class="st0" points="1456.2,1080 1456,1080 1456.2,1080.4 1456.3,1080.4 1456.4,1080.3 "/>
<polygon class="st0" points="1525.9,1080 1525.7,1080 1525.5,1080.3 1525.6,1080.4 1525.7,1080.4 "/>
<polygon class="st0" points="1733.7,1080 1664.2,1080 1664.4,1080.3 1664.3,1080.4 1733.6,1080.4 1733.5,1080.3 "/>
<polygon class="st0" points="1664.2,1080 1664,1080 1664.2,1080.4 1664.3,1080.4 1664.4,1080.3 "/>
<polygon class="st0" points="1733.9,1080 1733.7,1080 1733.5,1080.3 1733.6,1080.4 1733.7,1080.4 "/>
<polygon class="st0" points="1872.2,1080 1872.4,1080.3 1872.3,1080.4 1922,1080.4 1922,1080 "/>
<polygon class="st0" points="1872.2,1080 1872,1080 1872.2,1080.4 1872.3,1080.4 1872.4,1080.3 "/>
<polygon class="st0" points="2,960.4 2,960.2 0.2,960.2 0.2,960.3 0.2,960.4 "/>
<polygon class="st0" points="2,840.4 2,840.2 0.2,840.2 0.2,840.3 0.2,840.4 "/>
<polygon class="st0" points="0,1080 0.2,1080.4 2,1080.4 2,1080 "/>
</svg>
