<svg id="Layer_1" data-name="Layer 1" xmlns="http://www.w3.org/2000/svg" viewBox="0 0 1920 420.26"><polygon points="275.63 120 206.21 120 171.5 180.12 206.21 240.24 275.63 240.24 310.34 180.12 275.63 120"/><polygon points="379.63 300.02 310.21 300.02 275.5 360.14 310.21 420.26 379.63 420.26 414.34 360.14 379.63 300.02"/><polygon points="379.63 180 310.21 180 275.5 240.12 310.21 300.24 379.63 300.24 414.34 240.12 379.63 180"/><polygon points="483.63 240.02 414.21 240.02 379.5 300.14 414.21 360.26 483.63 360.26 518.34 300.14 483.63 240.02"/><polygon points="379.63 60 310.21 60 275.5 120.12 310.21 180.24 379.63 180.24 414.34 120.12 379.63 60"/><polygon points="483.63 0 414.21 0 379.5 60.12 414.21 120.24 483.63 120.24 518.34 60.12 483.63 0"/><polygon points="587.63 180 518.21 180 483.5 240.12 518.21 300.24 587.63 300.24 622.34 240.12 587.63 180"/><polygon points="691.63 240.02 622.21 240.02 587.5 300.14 622.21 360.26 691.63 360.26 726.34 300.14 691.63 240.02"/><polygon points="795.63 180 726.21 180 691.5 240.12 726.21 300.24 795.63 300.24 830.34 240.12 795.63 180"/><polygon points="899.63 120 830.21 120 795.5 180.12 830.21 240.24 899.63 240.24 934.34 180.12 899.63 120"/><polygon points="1003.63 300.02 934.21 300.02 899.5 360.14 934.21 420.26 1003.63 420.26 1038.34 360.14 1003.63 300.02"/><polygon points="1003.63 180 934.21 180 899.5 240.12 934.21 300.24 1003.63 300.24 1038.34 240.12 1003.63 180"/><polygon points="1107.63 240.02 1038.21 240.02 1003.5 300.14 1038.21 360.26 1107.63 360.26 1142.34 300.14 1107.63 240.02"/><polygon points="1107.63 120 1038.21 120 1003.5 180.12 1038.21 240.24 1107.63 240.24 1142.34 180.12 1107.63 120"/><polygon points="1211.63 60 1142.21 60 1107.5 120.12 1142.21 180.24 1211.63 180.24 1246.34 120.12 1211.63 60"/><polygon points="1211.63 300.02 1142.21 300.02 1107.5 360.14 1142.21 420.26 1211.63 420.26 1246.34 360.14 1211.63 300.02"/><polygon points="1315.63 240.02 1246.21 240.02 1211.5 300.14 1246.21 360.26 1315.63 360.26 1350.34 300.14 1315.63 240.02"/><polygon points="1523.63 120.02 1454.21 120.02 1419.5 180.14 1454.21 240.26 1523.63 240.26 1558.34 180.14 1523.63 120.02"/><polygon points="1315.63 120 1246.21 120 1211.5 180.12 1246.21 240.24 1315.63 240.24 1350.34 180.12 1315.63 120"/><polygon points="1419.63 300.02 1350.21 300.02 1315.5 360.14 1350.21 420.26 1419.63 420.26 1454.34 360.14 1419.63 300.02"/><polygon points="1419.63 180 1350.21 180 1315.5 240.12 1350.21 300.24 1419.63 300.24 1454.34 240.12 1419.63 180"/><polygon points="1835.63 60 1766.21 60 1731.5 120.12 1766.21 180.24 1835.63 180.24 1870.34 120.12 1835.63 60"/><polygon points="1731.63 240.02 1662.21 240.02 1627.5 300.14 1662.21 360.26 1731.63 360.26 1766.34 300.14 1731.63 240.02"/><polygon points="1731.63 120 1662.21 120 1627.5 180.12 1662.21 240.24 1731.63 240.24 1766.34 180.12 1731.63 120"/><polygon points="1835.63 180 1766.21 180 1731.5 240.12 1766.21 300.24 1835.63 300.24 1870.34 240.12 1835.63 180"/><polygon points="67.63 240.24 102.34 180.12 67.63 120 0 120 0 240.24 67.63 240.24"/><polygon points="1920 360.04 1920 240.02 1870.21 240.02 1835.5 300.14 1870.15 360.15 1870.21 360.04 1920 360.04"/><polygon points="275.63 360.04 206.21 360.04 171.67 419.87 310.17 419.87 275.63 360.04"/><polygon points="483.63 360.04 414.21 360.04 379.67 419.87 518.17 419.87 483.63 360.04"/><polygon points="691.63 360.04 622.21 360.04 587.67 419.87 726.17 419.87 691.63 360.04"/><polygon points="899.63 360.04 830.21 360.04 795.67 419.87 934.17 419.87 899.63 360.04"/><polygon points="1315.63 360.04 1246.21 360.04 1211.67 419.87 1350.17 419.87 1315.63 360.04"/><polygon points="1523.63 360.04 1454.21 360.04 1419.67 419.87 1558.17 419.87 1523.63 360.04"/><polygon points="67.63 360.04 0 360.04 0 419.87 102.17 419.87 67.63 360.04"/><polygon points="1920 360.26 1870.21 360.26 1870.15 360.15 1835.67 419.87 1920 419.87 1920 360.26"/><polygon points="171.57 420.04 171.67 419.87 102.17 419.87 102.27 420.04 171.57 420.04"/><polygon points="795.57 420.04 795.67 419.87 726.17 419.87 726.27 420.04 795.57 420.04"/><polygon points="587.57 420.04 587.67 419.87 518.17 419.87 518.27 420.04 587.57 420.04"/><polygon points="1419.57 420.04 1419.67 419.87 1350.17 419.87 1350.27 420.04 1419.57 420.04"/></svg>