<svg xmlns="http://www.w3.org/2000/svg" xmlns:xlink="http://www.w3.org/1999/xlink" version="1.1" id="Layer_1" x="0px" y="0px" viewBox="0 0 1920 420.3" style="enable-background:new 0 0 1920 420.3;" xml:space="preserve">
<style type="text/css">
	.st0{fill:#525252;stroke:#525252;stroke-miterlimit:10;}
</style>
<polygon class="st0" points="275.6,120 206.2,120 171.5,180.1 206.2,240.2 275.6,240.2 310.3,180.1 "/>
<polygon class="st0" points="379.6,300 310.2,300 275.5,360.1 310.2,420.3 379.6,420.3 414.3,360.1 "/>
<polygon class="st0" points="379.6,180 310.2,180 275.5,240.1 310.2,300.2 379.6,300.2 414.3,240.1 "/>
<polygon class="st0" points="483.6,240 414.2,240 379.5,300.1 414.2,360.3 483.6,360.3 518.3,300.1 "/>
<polygon class="st0" points="379.6,60 310.2,60 275.5,120.1 310.2,180.2 379.6,180.2 414.3,120.1 "/>
<polygon class="st0" points="483.6,0 414.2,0 379.5,60.1 414.2,120.2 483.6,120.2 518.3,60.1 "/>
<polygon class="st0" points="587.6,180 518.2,180 483.5,240.1 518.2,300.2 587.6,300.2 622.3,240.1 "/>
<polygon class="st0" points="691.6,240 622.2,240 587.5,300.1 622.2,360.3 691.6,360.3 726.3,300.1 "/>
<polygon class="st0" points="795.6,180 726.2,180 691.5,240.1 726.2,300.2 795.6,300.2 830.3,240.1 "/>
<polygon class="st0" points="899.6,120 830.2,120 795.5,180.1 830.2,240.2 899.6,240.2 934.3,180.1 "/>
<polygon class="st0" points="1003.6,300 934.2,300 899.5,360.1 934.2,420.3 1003.6,420.3 1038.3,360.1 "/>
<polygon class="st0" points="1003.6,180 934.2,180 899.5,240.1 934.2,300.2 1003.6,300.2 1038.3,240.1 "/>
<polygon class="st0" points="1107.6,240 1038.2,240 1003.5,300.1 1038.2,360.3 1107.6,360.3 1142.3,300.1 "/>
<polygon class="st0" points="1107.6,120 1038.2,120 1003.5,180.1 1038.2,240.2 1107.6,240.2 1142.3,180.1 "/>
<polygon class="st0" points="1211.6,60 1142.2,60 1107.5,120.1 1142.2,180.2 1211.6,180.2 1246.3,120.1 "/>
<polygon class="st0" points="1211.6,300 1142.2,300 1107.5,360.1 1142.2,420.3 1211.6,420.3 1246.3,360.1 "/>
<polygon class="st0" points="1315.6,240 1246.2,240 1211.5,300.1 1246.2,360.3 1315.6,360.3 1350.3,300.1 "/>
<polygon class="st0" points="1523.6,120 1454.2,120 1419.5,180.1 1454.2,240.3 1523.6,240.3 1558.3,180.1 "/>
<polygon class="st0" points="1315.6,120 1246.2,120 1211.5,180.1 1246.2,240.2 1315.6,240.2 1350.3,180.1 "/>
<polygon class="st0" points="1419.6,300 1350.2,300 1315.5,360.1 1350.2,420.3 1419.6,420.3 1454.3,360.1 "/>
<polygon class="st0" points="1419.6,180 1350.2,180 1315.5,240.1 1350.2,300.2 1419.6,300.2 1454.3,240.1 "/>
<polygon class="st0" points="1835.6,60 1766.2,60 1731.5,120.1 1766.2,180.2 1835.6,180.2 1870.3,120.1 "/>
<polygon class="st0" points="1731.6,240 1662.2,240 1627.5,300.1 1662.2,360.3 1731.6,360.3 1766.3,300.1 "/>
<polygon class="st0" points="1731.6,120 1662.2,120 1627.5,180.1 1662.2,240.2 1731.6,240.2 1766.3,180.1 "/>
<polygon class="st0" points="1835.6,180 1766.2,180 1731.5,240.1 1766.2,300.2 1835.6,300.2 1870.3,240.1 "/>
<polygon class="st0" points="67.6,240.2 102.3,180.1 67.6,120 0,120 0,240.2 "/>
<polygon class="st0" points="1920,360 1920,240 1870.2,240 1835.5,300.1 1870.2,360.1 1870.2,360 "/>
<polygon class="st0" points="275.6,360 206.2,360 171.7,419.9 310.2,419.9 "/>
<polygon class="st0" points="483.6,360 414.2,360 379.7,419.9 518.2,419.9 "/>
<polygon class="st0" points="691.6,360 622.2,360 587.7,419.9 726.2,419.9 "/>
<polygon class="st0" points="899.6,360 830.2,360 795.7,419.9 934.2,419.9 "/>
<polygon class="st0" points="1315.6,360 1246.2,360 1211.7,419.9 1350.2,419.9 "/>
<polygon class="st0" points="1523.6,360 1454.2,360 1419.7,419.9 1558.2,419.9 "/>
<polygon class="st0" points="67.6,360 0,360 0,419.9 102.2,419.9 "/>
<polygon class="st0" points="1920,360.3 1870.2,360.3 1870.2,360.1 1835.7,419.9 1920,419.9 "/>
<polygon class="st0" points="171.6,420 171.7,419.9 102.2,419.9 102.3,420 "/>
<polygon class="st0" points="795.6,420 795.7,419.9 726.2,419.9 726.3,420 "/>
<polygon class="st0" points="587.6,420 587.7,419.9 518.2,419.9 518.3,420 "/>
<polygon class="st0" points="1419.6,420 1419.7,419.9 1350.2,419.9 1350.3,420 "/>
</svg>