<svg xmlns="http://www.w3.org/2000/svg" viewBox="0 0 173.21 200"><defs><style>.cls-1{fill:#fff;}.cls-2{fill-rule:evenodd;}</style></defs><g id="Layer_2" data-name="Layer 2"><g id="Layer_1-2" data-name="Layer 1"><polygon class="cls-1" points="0.5 149.71 0.5 50.29 86.6 0.58 172.71 50.29 172.71 149.71 86.6 199.42 0.5 149.71"/><path class="cls-1" d="M86.6,1.15l85.61,49.43v98.84L86.6,198.85,1,149.42V50.58L86.6,1.15M86.6,0,0,50V150l86.6,50,86.61-50V50L86.6,0Z"/><path class="cls-2" d="M86.55,34.51A67,67,0,0,0,65.36,165.17c3.35.63,4.58-1.45,4.58-3.22,0-1.6-.06-6.88-.09-12.48-18.66,4.05-22.59-7.91-22.59-7.91-3-7.75-7.45-9.81-7.45-9.81-6.08-4.17.46-4.08.46-4.08,6.73.47,10.28,6.91,10.28,6.91,6,10.25,15.69,7.29,19.51,5.57.6-4.33,2.34-7.29,4.26-9-14.89-1.7-30.55-7.45-30.55-33.14a25.92,25.92,0,0,1,6.91-18c-.7-1.69-3-8.51.65-17.75,0,0,5.63-1.8,18.44,6.88a63.63,63.63,0,0,1,33.58,0c12.8-8.67,18.42-6.87,18.42-6.87,3.65,9.24,1.35,16.06.66,17.74a25.91,25.91,0,0,1,6.9,18c0,25.75-15.69,31.42-30.62,33.08,2.41,2.08,4.55,6.16,4.55,12.42,0,9-.08,16.19-.08,18.4,0,1.78,1.21,3.87,4.61,3.21A67.05,67.05,0,0,0,86.55,34.51Z"/><path d="M45.39,130.77a.85.85,0,0,1-1.15.2c-.49-.21-.76-.67-.61-1s.67-.44,1.16-.21.76.68.59,1Zm2.71,3c-.32.3-.94.16-1.37-.31s-.52-1.09-.19-1.39.93-.16,1.37.31.53,1.09.19,1.39Zm2.65,3.86c-.41.29-1.09,0-1.5-.58s-.41-1.31,0-1.6,1.08,0,1.5.57.41,1.32,0,1.61Zm3.62,3.73c-.37.41-1.15.3-1.73-.25a1.31,1.31,0,0,1-.38-1.72,1.29,1.29,0,0,1,1.74.26c.58.54.76,1.31.37,1.71Zm5,2.17c-.16.52-.91.76-1.67.54s-1.26-.85-1.1-1.38.91-.77,1.68-.54S59.52,143,59.36,143.56Zm5.49.4c0,.55-.62,1-1.42,1S62,144.55,62,144s.63-1,1.43-1,1.45.43,1.45,1Zm5.11-.87c.09.54-.46,1.09-1.25,1.24s-1.5-.19-1.6-.73.47-1.1,1.24-1.25,1.51.19,1.61.74Z"/></g></g></svg>