<svg xmlns="http://www.w3.org/2000/svg" viewBox="0 0 173.21 200"><defs><style>.cls-1{fill:#fff;}</style></defs><g id="Layer_2" data-name="Layer 2"><g id="Layer_1-2" data-name="Layer 1"><polygon class="cls-1" points="0.5 149.71 0.5 50.29 86.6 0.58 172.71 50.29 172.71 149.71 86.6 199.42 0.5 149.71"/><path class="cls-1" d="M86.6,1.15l85.61,49.43v98.84L86.6,198.85,1,149.42V50.58L86.6,1.15M86.6,0,0,50V150l86.6,50,86.61-50V50L86.6,0Z"/><path d="M26.6,138.5v-77c.17-.54.38-1.08.51-1.64,2.23-9.21,7.79-15.44,16.72-18.62,1.39-.5,2.85-.83,4.27-1.24h77c.55.17,1.08.38,1.63.51,9.33,2.24,15.55,7.92,18.73,16.94.46,1.32.76,2.7,1.14,4v77c-.18.63-.39,1.25-.55,1.89q-3.5,13.77-16.9,18.47c-1.32.46-2.7.76-4.05,1.14h-77c-.54-.17-1.08-.38-1.63-.51-9.32-2.24-15.54-7.92-18.72-16.94C27.28,141.23,27,139.85,26.6,138.5Zm99.51-3.62c0-13.17.63-26.25-.2-39.23-.66-10.23-9.52-16.55-19.65-15.57a19.55,19.55,0,0,0-14.73,8.53V80.12H76.75v54.71H91.6c0-9.33-.15-18.49.1-27.63a17.76,17.76,0,0,1,2.1-7.78c1.9-3.48,5.29-5,9.33-4.46a8.63,8.63,0,0,1,7.42,6.21,20,20,0,0,1,1,6.1c.11,8.32,0,16.65,0,25v2.63ZM51.78,80.11v54.68H66.47V80.11Zm16-15.36a8.72,8.72,0,1,0-17.43.3,8.72,8.72,0,0,0,17.43-.3Z"/><path class="cls-1" d="M48.1,40c-1.42.41-2.88.74-4.27,1.24-8.93,3.18-14.49,9.41-16.72,18.62-.13.56-.34,1.1-.51,1.64V40Z"/><path class="cls-1" d="M146.6,61.5c-.38-1.35-.68-2.73-1.14-4-3.18-9-9.4-14.7-18.73-16.94-.55-.13-1.08-.34-1.63-.51h21.5Z"/><path class="cls-1" d="M26.6,138.5c.38,1.35.68,2.73,1.15,4.05,3.18,9,9.4,14.7,18.72,16.94.55.13,1.09.34,1.63.51H26.6Z"/><path class="cls-1" d="M125.1,160c1.35-.38,2.73-.68,4.05-1.14q13.4-4.7,16.9-18.47c.16-.64.37-1.26.55-1.89V160Z"/><path class="cls-1" d="M126.11,134.88H111.6v-2.63c0-8.33.07-16.66,0-25a20,20,0,0,0-1-6.1A8.63,8.63,0,0,0,103.13,95c-4-.5-7.43,1-9.33,4.46a17.76,17.76,0,0,0-2.1,7.78c-.25,9.14-.1,18.3-.1,27.63H76.75V80.12H91.53v8.49a19.55,19.55,0,0,1,14.73-8.53c10.13-1,19,5.34,19.65,15.57C126.74,108.63,126.11,121.71,126.11,134.88Z"/><path class="cls-1" d="M51.78,80.11H66.47v54.68H51.78Z"/><path class="cls-1" d="M67.82,64.75a8.72,8.72,0,0,1-17.43.3,8.72,8.72,0,1,1,17.43-.3Z"/></g></g></svg>